<?xml version="1.0" encoding="UTF-8"?>
<svg xmlns="http://www.w3.org/2000/svg" xmlns:xlink="http://www.w3.org/1999/xlink" width="112.5pt" height="112.499997pt" viewBox="0 0 112.5 112.499997" version="1.2">
<defs>
<clipPath id="clip1">
  <path d="M 14.621094 35 L 97.871094 35 L 97.871094 92.59375 L 14.621094 92.59375 Z M 14.621094 35 "/>
</clipPath>
<clipPath id="clip2">
  <path d="M 40 19.84375 L 72 19.84375 L 72 38 L 40 38 Z M 40 19.84375 "/>
</clipPath>
</defs>
<g id="surface1">
<g clip-path="url(#clip1)" clip-rule="nonzero">
<path style=" stroke:none;fill-rule:nonzero;fill:rgb(78.42865%,53.729248%,46.669006%);fill-opacity:1;" d="M 95.539062 88.667969 C 69.179688 88.667969 42.820312 88.667969 16.460938 88.667969 C 17.03125 89.238281 17.601562 89.808594 18.175781 90.378906 C 18.175781 72.507812 18.175781 54.636719 18.175781 36.765625 C 17.601562 37.335938 17.03125 37.90625 16.460938 38.476562 C 42.820312 38.476562 69.179688 38.476562 95.539062 38.476562 C 94.964844 37.90625 94.394531 37.335938 93.824219 36.765625 C 93.824219 54.636719 93.824219 72.507812 93.824219 90.378906 C 93.824219 92.585938 97.25 92.585938 97.25 90.378906 C 97.25 72.507812 97.25 54.636719 97.25 36.765625 C 97.25 35.832031 96.46875 35.054688 95.539062 35.054688 C 69.179688 35.054688 42.820312 35.054688 16.460938 35.054688 C 15.527344 35.054688 14.75 35.832031 14.75 36.765625 C 14.75 54.636719 14.75 72.507812 14.75 90.378906 C 14.75 91.308594 15.527344 92.089844 16.460938 92.089844 C 42.820312 92.089844 69.179688 92.089844 95.539062 92.089844 C 97.746094 92.089844 97.746094 88.667969 95.539062 88.667969 Z M 95.539062 88.667969 "/>
</g>
<path style=" stroke:none;fill-rule:nonzero;fill:rgb(78.42865%,53.729248%,46.669006%);fill-opacity:1;" d="M 37.953125 56.441406 C 31.058594 56.441406 24.164062 56.441406 17.269531 56.441406 C 16.671875 56.441406 16.671875 59.863281 17.269531 59.863281 C 24.164062 59.863281 31.058594 59.863281 37.953125 59.863281 C 38.550781 59.863281 38.550781 56.441406 37.953125 56.441406 Z M 37.953125 56.441406 "/>
<path style=" stroke:none;fill-rule:nonzero;fill:rgb(78.42865%,53.729248%,46.669006%);fill-opacity:1;" d="M 44.847656 67.296875 L 35.679688 67.296875 L 35.679688 50.945312 L 44.847656 50.945312 Z M 39.332031 63.648438 L 41.199219 63.648438 L 41.199219 54.59375 L 39.332031 54.59375 Z M 39.332031 63.648438 "/>
<path style=" stroke:none;fill-rule:nonzero;fill:rgb(78.42865%,53.729248%,46.669006%);fill-opacity:1;" d="M 76.816406 67.296875 L 67.644531 67.296875 L 67.644531 50.945312 L 76.816406 50.945312 Z M 71.296875 63.648438 L 73.164062 63.648438 L 73.164062 54.59375 L 71.296875 54.59375 Z M 71.296875 63.648438 "/>
<g clip-path="url(#clip2)" clip-rule="nonzero">
<path style=" stroke:none;fill-rule:nonzero;fill:rgb(78.42865%,53.729248%,46.669006%);fill-opacity:1;" d="M 44.164062 35.625 C 44.164062 30.933594 44.164062 26.246094 44.164062 21.554688 C 43.59375 22.125 43.023438 22.695312 42.453125 23.265625 C 51.457031 23.265625 60.464844 23.265625 69.472656 23.265625 C 68.898438 22.695312 68.328125 22.125 67.757812 21.554688 C 67.757812 26.246094 67.757812 30.933594 67.757812 35.625 C 67.757812 37.832031 71.183594 37.832031 71.183594 35.625 C 71.183594 30.933594 71.183594 26.246094 71.183594 21.554688 C 71.183594 20.621094 70.40625 19.84375 69.472656 19.84375 C 60.464844 19.84375 51.457031 19.84375 42.453125 19.84375 C 41.519531 19.84375 40.738281 20.621094 40.738281 21.554688 C 40.738281 26.246094 40.738281 30.933594 40.738281 35.625 C 40.738281 37.832031 44.164062 37.832031 44.164062 35.625 Z M 44.164062 35.625 "/>
</g>
<path style=" stroke:none;fill-rule:nonzero;fill:rgb(78.42865%,53.729248%,46.669006%);fill-opacity:1;" d="M 69.734375 56.441406 C 61.039062 56.441406 52.339844 56.441406 43.644531 56.441406 C 42.890625 56.441406 42.890625 59.863281 43.644531 59.863281 C 52.339844 59.863281 61.039062 59.863281 69.734375 59.863281 C 70.488281 59.863281 70.488281 56.441406 69.734375 56.441406 Z M 69.734375 56.441406 "/>
<path style=" stroke:none;fill-rule:nonzero;fill:rgb(78.42865%,53.729248%,46.669006%);fill-opacity:1;" d="M 96.109375 56.441406 C 89.238281 56.441406 82.363281 56.441406 75.492188 56.441406 C 74.894531 56.441406 74.894531 59.863281 75.492188 59.863281 C 82.363281 59.863281 89.238281 59.863281 96.109375 59.863281 C 96.707031 59.863281 96.707031 56.441406 96.109375 56.441406 Z M 96.109375 56.441406 "/>
</g>
</svg>
