<?xml version="1.0" encoding="UTF-8"?>
<svg xmlns="http://www.w3.org/2000/svg" xmlns:xlink="http://www.w3.org/1999/xlink" width="112.5pt" height="112.499997pt" viewBox="0 0 112.5 112.499997" version="1.2">
<defs>
<clipPath id="clip1">
  <path d="M 3.273438 26.78125 L 109 26.78125 L 109 86.03125 L 3.273438 86.03125 Z M 3.273438 26.78125 "/>
</clipPath>
</defs>
<g id="surface1">
<g clip-path="url(#clip1)" clip-rule="nonzero">
<path style=" stroke:none;fill-rule:nonzero;fill:rgb(59.21936%,83.918762%,90.979004%);fill-opacity:1;" d="M 78.253906 51.980469 L 57.542969 58.617188 L 33.996094 51.476562 C 33.996094 51.476562 33.996094 51.476562 33.992188 51.476562 L 10.835938 44.453125 L 56.136719 30.308594 L 101.582031 44.5 Z M 77.066406 64.238281 C 74.3125 67.003906 66.582031 69.398438 56.136719 69.398438 C 45.6875 69.398438 37.960938 67.003906 35.207031 64.238281 L 35.207031 55.425781 L 57.066406 62.054688 C 57.148438 62.078125 57.230469 62.097656 57.3125 62.109375 C 57.335938 62.113281 57.355469 62.113281 57.378906 62.113281 C 57.4375 62.121094 57.496094 62.128906 57.554688 62.128906 C 57.558594 62.128906 57.5625 62.128906 57.5625 62.125 C 57.613281 62.125 57.660156 62.121094 57.707031 62.117188 C 57.746094 62.113281 57.78125 62.113281 57.820312 62.105469 C 57.90625 62.09375 57.992188 62.074219 58.074219 62.046875 L 77.066406 55.957031 Z M 71.640625 73.054688 C 67.523438 74.332031 62.015625 75.035156 56.136719 75.035156 C 50.257812 75.035156 44.75 74.332031 40.632812 73.054688 C 36.652344 71.820312 35.207031 70.390625 35.207031 69.730469 L 35.207031 69.421875 C 36.34375 70.289062 37.785156 71.0625 39.515625 71.71875 C 42.882812 72.996094 47.152344 73.78125 51.859375 73.984375 C 51.871094 73.984375 51.882812 73.984375 51.898438 73.984375 C 52.378906 73.984375 52.777344 73.601562 52.796875 73.113281 C 52.820312 72.613281 52.433594 72.191406 51.9375 72.167969 C 44.085938 71.828125 37.722656 69.8125 35.207031 66.996094 L 35.207031 65.835938 C 36.371094 66.730469 37.960938 67.542969 39.933594 68.238281 C 44.273438 69.769531 50.027344 70.609375 56.136719 70.609375 C 62.246094 70.609375 68.003906 69.769531 72.339844 68.238281 C 74.3125 67.542969 75.902344 66.730469 77.066406 65.835938 L 77.066406 69.730469 C 77.066406 70.390625 75.621094 71.820312 71.640625 73.054688 Z M 18.449219 84.210938 C 17.300781 84.210938 16.179688 83.859375 15.234375 83.210938 L 17.316406 75.230469 C 17.328125 75.234375 17.339844 75.238281 17.355469 75.246094 C 17.375 75.257812 17.398438 75.269531 17.421875 75.277344 L 16.488281 81.015625 C 16.433594 81.347656 16.652344 81.65625 16.980469 81.710938 C 17.015625 81.714844 17.046875 81.71875 17.078125 81.71875 C 17.367188 81.71875 17.625 81.507812 17.671875 81.210938 L 18.601562 75.507812 C 18.644531 75.503906 18.6875 75.5 18.726562 75.496094 C 18.757812 75.492188 18.785156 75.488281 18.8125 75.484375 C 18.875 75.472656 18.9375 75.460938 19 75.449219 C 19.03125 75.441406 19.058594 75.433594 19.089844 75.421875 C 19.152344 75.40625 19.207031 75.386719 19.265625 75.367188 C 19.292969 75.359375 19.320312 75.347656 19.347656 75.335938 C 19.417969 75.308594 19.480469 75.277344 19.546875 75.246094 C 19.558594 75.238281 19.570312 75.234375 19.582031 75.230469 L 21.664062 83.210938 C 20.722656 83.859375 19.597656 84.210938 18.449219 84.210938 Z M 18.449219 73.699219 C 18.117188 73.699219 17.84375 73.425781 17.84375 73.089844 C 17.84375 72.753906 18.117188 72.480469 18.449219 72.480469 C 18.785156 72.480469 19.054688 72.753906 19.054688 73.089844 C 19.054688 73.425781 18.785156 73.699219 18.449219 73.699219 Z M 107.765625 42.839844 L 56.640625 26.875 C 56.3125 26.773438 55.960938 26.773438 55.632812 26.875 L 4.507812 42.839844 C 3.792969 43.0625 3.304688 43.730469 3.308594 44.484375 C 3.3125 45.238281 3.800781 45.902344 4.519531 46.117188 L 17.546875 50.070312 L 17.546875 70.839844 C 16.707031 71.183594 16.105469 71.992188 16.050781 72.945312 L 13.335938 83.339844 C 13.246094 83.679688 13.363281 84.039062 13.632812 84.265625 C 14.980469 85.398438 16.691406 86.023438 18.449219 86.023438 C 20.207031 86.023438 21.917969 85.398438 23.269531 84.265625 C 23.535156 84.039062 23.652344 83.679688 23.5625 83.339844 L 20.851562 72.945312 C 20.792969 71.992188 20.191406 71.183594 19.351562 70.839844 L 19.351562 50.617188 L 31.800781 54.394531 L 31.800781 69.730469 C 31.800781 71.632812 33.160156 74.324219 39.632812 76.332031 C 44.066406 77.707031 49.925781 78.464844 56.136719 78.464844 C 62.347656 78.464844 68.207031 77.707031 72.640625 76.332031 C 79.113281 74.324219 80.472656 71.632812 80.472656 69.730469 L 80.472656 54.867188 L 107.78125 46.109375 C 108.488281 45.882812 108.96875 45.21875 108.964844 44.46875 C 108.960938 43.722656 108.476562 43.058594 107.765625 42.839844 "/>
</g>
<path style=" stroke:none;fill-rule:nonzero;fill:rgb(59.21936%,83.918762%,90.979004%);fill-opacity:1;" d="M 35.425781 48.5 L 18.703125 43.59375 C 18.222656 43.453125 17.722656 43.730469 17.585938 44.210938 C 17.445312 44.691406 17.71875 45.195312 18.199219 45.335938 L 34.921875 50.242188 C 35.003906 50.269531 35.089844 50.28125 35.171875 50.28125 C 35.5625 50.28125 35.925781 50.023438 36.039062 49.625 C 36.175781 49.144531 35.902344 48.640625 35.425781 48.5 "/>
<path style=" stroke:none;fill-rule:nonzero;fill:rgb(59.21936%,83.918762%,90.979004%);fill-opacity:1;" d="M 45.824219 51.523438 L 38.8125 49.605469 C 38.335938 49.472656 37.839844 49.761719 37.707031 50.242188 C 37.578125 50.726562 37.863281 51.226562 38.34375 51.359375 L 45.351562 53.273438 C 45.429688 53.296875 45.511719 53.304688 45.589844 53.304688 C 45.984375 53.304688 46.347656 53.039062 46.457031 52.636719 C 46.589844 52.152344 46.304688 51.652344 45.824219 51.523438 "/>
<path style=" stroke:none;fill-rule:nonzero;fill:rgb(59.21936%,83.918762%,90.979004%);fill-opacity:1;" d="M 34.246094 47.125 L 41.15625 48.9375 C 41.230469 48.960938 41.308594 48.96875 41.382812 48.96875 C 41.78125 48.96875 42.148438 48.699219 42.253906 48.289062 C 42.378906 47.804688 42.089844 47.308594 41.609375 47.183594 L 34.699219 45.367188 C 34.21875 45.242188 33.726562 45.53125 33.601562 46.015625 C 33.472656 46.5 33.761719 46.996094 34.246094 47.125 "/>
<path style=" stroke:none;fill-rule:nonzero;fill:rgb(59.21936%,83.918762%,90.979004%);fill-opacity:1;" d="M 73.960938 39.042969 L 84.679688 42.371094 C 84.765625 42.398438 84.855469 42.414062 84.945312 42.414062 C 85.328125 42.414062 85.683594 42.160156 85.804688 41.773438 C 85.953125 41.292969 85.683594 40.785156 85.210938 40.636719 L 74.492188 37.308594 C 74.019531 37.160156 73.511719 37.429688 73.367188 37.910156 C 73.21875 38.386719 73.488281 38.894531 73.960938 39.042969 "/>
<path style=" stroke:none;fill-rule:nonzero;fill:rgb(59.21936%,83.918762%,90.979004%);fill-opacity:1;" d="M 88.777344 43.480469 L 92.285156 44.589844 C 92.375 44.617188 92.464844 44.632812 92.554688 44.632812 C 92.9375 44.632812 93.292969 44.382812 93.414062 43.996094 C 93.5625 43.515625 93.300781 43.007812 92.824219 42.859375 L 89.320312 41.75 C 88.84375 41.597656 88.339844 41.863281 88.1875 42.339844 C 88.039062 42.820312 88.304688 43.328125 88.777344 43.480469 "/>
<path style=" stroke:none;fill-rule:nonzero;fill:rgb(59.21936%,83.918762%,90.979004%);fill-opacity:1;" d="M 19.046875 77.238281 C 19.046875 77.238281 19.042969 77.238281 19.039062 77.238281 C 18.707031 77.246094 18.441406 77.519531 18.449219 77.855469 L 18.515625 81.929688 C 18.519531 82.261719 18.789062 82.527344 19.117188 82.527344 C 19.117188 82.527344 19.121094 82.527344 19.125 82.527344 C 19.457031 82.519531 19.722656 82.246094 19.714844 81.910156 L 19.648438 77.835938 C 19.644531 77.503906 19.375 77.238281 19.046875 77.238281 "/>
</g>
</svg>
